# xmcd
#
# Track frame offsets:
# 150
# 5372
# 24107
# 41765
# 58267
# 76322
# 93122
# 117030
# 142150
# 161665
# 175762
# 190475
#
# Disc length: 2798 seconds
#
#
# Revision: 0
# Processed by: cddbd v1.5.2PL0 Copyright (c) Steve Scherf et al.
# Submitted via: FreeRIP 2.951 
#
DISCID=940aec0c
DTITLE=Vargas Blues Band - Blues Latino
DYEAR=1994
DGENRE=Blues
TTITLE0=01 - El Alma
TTITLE1=02 - Rock Away De Blues
TTITLE2=03 - Coward's Knife
TTITLE3=04 - Brand New Blues
TTITLE4=05 - Out Of The Blues
TTITLE5=06 - Hot Wires
TTITLE6=07 - Do You Believe In Love?
TTITLE7=08 - Blues Latino
TTITLE8=09 - Magic Of The Gods
TTITLE9=10 - Amapola Negra
TTITLE10=11 - Fear
TTITLE11=12 - Mexico City Blues
EXTD=
EXTT0=
EXTT1=
EXTT2=
EXTT3=
EXTT4=
EXTT5=
EXTT6=
EXTT7=
EXTT8=
EXTT9=
EXTT10=
EXTT11=
PLAYORDER=
